{"title":"The Chemical Brothers - Further (2010) [DVDRip - x264 - MP3] TNT","uid":9174959,"size":736191729,"categoryP":"video","categoryS":"music_videos","magnet":"?xt=urn:btih:f1b012b2dc5174a3ecff8296591150de98c96a12&amp;dn=The+Chemical+Brothers+-+Further+%282010%29+%5BDVDRip+-+x264+-+MP3%5D+TNT&amp;tr=udp%3A%2F%2Ftracker.openbittorrent.com%3A80&amp;tr=udp%3A%2F%2Fopen.demonii.com%3A1337&amp;tr=udp%3A%2F%2Ftracker.coppersurfer.tk%3A6969&amp;tr=udp%3A%2F%2Fexodus.desync.com%3A6969","seeders":1,"leechers":0,"uploader":"alastorr2","files":-1,"time":1384135359,"description":"The Chemical Brothers - Further (2010) [DVDRip - x264 - MP3] TNT Village\n\n\n\n.: Original Release :.\n &lt;a href=&quot;\nhttp://forum.tntvillage.scambioetico.org/index.php?showtopic=369121&quot; rel=&quot;nofollow&quot; target=&quot;_NEW&quot;&gt;\nhttp://forum.tntvillage.scambioetico.org/index.php?showtopic=369121&lt;/a&gt;\n\n\n.: Album Info :.\n\nArtist: The Chemical Brothers\nTitle: Further\nCountry: UK\nYear: 2010\nGenre: Electronic / Big Beat\nWikipedia: http://en.wikipedia.org/wiki/Further_(The_Chemical_Brothers_album)\n\n\n.: Tracklist :.\n\n1. Snow\n2. Escape Velocity\n3. Another World\n4. Dissolve\n5. Horse Power\n6. Swoon\n7. K+D+B\n8. Wonders of the Deep\n9. [EXTRA] The Making of\n\n========================================\n\n.: Screenshots :.\n &lt;a href=&quot;\nhttp://imageshack.us/g/1/10395826/&quot; rel=&quot;nofollow&quot; target=&quot;_NEW&quot;&gt;\nhttp://imageshack.us/g/1/10395826/&lt;/a&gt;\n\n\n.: MediaInfo Report :.\n\n\nGeneral\nComplete name                    : W:/Further/The Chemical Brothers - Further (2010).mp4\nFormat                           : MPEG-4\nFormat profile                   : Base Media\nCodec ID                         : isom\nFile size                        : 702 MiB\nDuration                         : 1h 0mn\nOverall bit rate                 : 1 627 Kbps\n\nVideo\nID                               : 1\nFormat                           : AVC\nFormat/Info                      : Advanced Video Codec\nFormat profile                   : &lt;a class=&quot;__cf_email__&quot; href=&quot;/cdn-cgi/l/email-protection&quot; data-cfemail=&quot;e3ab8a848ba3afd0cdd2&quot;&gt;[email&amp;#160;protected]&lt;/a&gt;&lt;script cf-hash='f9e31' type=&quot;text/javascript&quot;&gt;\n/* &lt;![CDATA[ */!function(){try{var t=&quot;currentScript&quot;in document?document.currentScript:function(){for(var t=document.getElementsByTagName(&quot;script&quot;),e=t.length;e--;)if(t[e].getAttribute(&quot;cf-hash&quot;))return t[e]}();if(t&amp;&amp;t.previousSibling){var e,r,n,i,c=t.previousSibling,a=c.getAttribute(&quot;data-cfemail&quot;);if(a){for(e=&quot;&quot;,r=parseInt(a.substr(0,2),16),n=2;a.length-n;n+=2)i=parseInt(a.substr(n,2),16)^r,e+=String.fromCharCode(i);e=document.createTextNode(e),c.parentNode.replaceChild(e,c)}}}catch(u){}}();/* ]]&gt; */&lt;/script&gt;\nFormat settings, CABAC           : Yes\nFormat settings, ReFrames        : 5 frames\nCodec ID                         : avc1\nCodec ID/Info                    : Advanced Video Coding\nDuration                         : 1h 0mn\nBit rate                         : 1 372 Kbps\nMaximum bit rate                 : 11.9 Mbps\nWidth                            : 720 pixels\nHeight                           : 400 pixels\nDisplay aspect ratio             : 16:9\nFrame rate mode                  : Constant\nFrame rate                       : 29.970 fps\nColor space                      : YUV\nChroma subsampling               : 4:2:0\nBit depth                        : 8 bits\nScan type                        : Progressive\nBits/(Pixel*Frame)               : 0.159\nStream size                      : 593 MiB (85%)\nTitle                            : The Chemical Brothers - Further\nWriting library                  : x264 core 129 r2230 1cffe9f\nEncoding settings                : cabac=1 // deblock=1:-1:-1 / analyse=0x3:0x113 / me=umh / subme=8 / psy=1 / psy_rd=1.00:0.00 // me_range=16 / chroma_me=1 / trellis=2 / 8x8dct=1 / cqm=0 / deadzone=21,11 / fast_pskip=0 / chroma_qp_offset=-2 / threads=3 / lookahead_threads=1 / sliced_threads=0 / nr=0 / decimate=1 / interlaced=0 / bluray_compat=0 / constrained_intra=0 / bframes=3 / b_pyramid=2 / b_adapt=2 / b_bias=0 / direct=3 / weightb=1 / open_gop=0 / weightp=2 / keyint=300 / keyint_min=29 / scenecut=40 / intra_refresh=0 / rc_lookahead=50 / rc=2pass / mbtree=1 / bitrate=1372 / ratetol=2.0 / qcomp=0.60 / qpmin=10 / qpmax=51 / qpstep=4 / cplxblur=20.0 / qblur=0.5 / vbv_maxrate=17500 / vbv_bufsize=14000 / nal_hrd=none / ip_ratio=1.40 / aq=1:1.00\n\nAudio\nID                               : 2\nFormat                           : MPEG Audio\nFormat version                   : Version 1\nFormat profile                   : Layer 3\nMode                             : Joint stereo\nMode extension                   : MS Stereo\nCodec ID                         : 6B\nDuration                         : 1h 0mn\nDuration_FirstFrame              : -16ms\nBit rate mode                    : Variable\nBit rate                         : 247 Kbps\nMaximum bit rate                 : 323 Kbps\nChannel(s)                       : 2 channels\nSampling rate                    : 48.0 KHz\nCompression mode                 : Lossy\nStream size                      : 107 MiB (15%)\nWriting library                  : LAME3.99.5\nEncoding settings                : -m j -V 0 -q 0 -lowpass 24 --vbr-new -b 32\n\nMenu\n00:00:00.000                     : Snow\n00:05:08.667                     : Escape Velocity\n00:17:04.601                     : Another World\n00:22:45.035                     : Dissolve\n00:29:06.502                     : Horse Power\n00:34:57.236                     : Swoon\n00:41:01.937                     : K+D+B\n00:46:41.538                     : Wonders of the Deep\n00:51:52.605                     : [EXTRA] The Making of","torrent":{"xt":"urn:btih:f1b012b2dc5174a3ecff8296591150de98c96a12","amp;dn":"The+Chemical+Brothers+-+Further+%282010%29+%5BDVDRip+-+x264+-+MP3%5D+TNT","amp;tr":["udp%3A%2F%2Ftracker.openbittorrent.com%3A80","udp%3A%2F%2Fopen.demonii.com%3A1337","udp%3A%2F%2Ftracker.coppersurfer.tk%3A6969","udp%3A%2F%2Fexodus.desync.com%3A6969"],"infoHash":"f1b012b2dc5174a3ecff8296591150de98c96a12","infoHashBuffer":{"type":"Buffer","data":[241,176,18,178,220,81,116,163,236,255,130,150,89,17,80,222,152,201,106,18]},"announce":[],"urlList":[]}}